<mxfile host="app.diagrams.net" modified="2023-12-25T09:43:54.468Z" agent="Mozilla/5.0 (Windows NT 10.0; Win64; x64) AppleWebKit/537.36 (KHTML, like Gecko) Chrome/111.0.0.0 Safari/537.36" etag="vw4ECvB2YC0Q6iyW-Lh1" version="22.1.11" type="github">
  <diagram name="第 1 页" id="GWbsmhciHJHAX3cp5Gmc">
    <mxGraphModel dx="794" dy="743" grid="1" gridSize="10" guides="1" tooltips="1" connect="1" arrows="1" fold="1" page="1" pageScale="1" pageWidth="827" pageHeight="1169" math="0" shadow="0">
      <root>
        <mxCell id="0" />
        <mxCell id="1" parent="0" />
        <mxCell id="-qYKaQUmNgUT-kmqyWFm-1" value="" style="ellipse;whiteSpace=wrap;html=1;aspect=fixed;" parent="1" vertex="1">
          <mxGeometry x="100" y="410" width="200" height="200" as="geometry" />
        </mxCell>
        <mxCell id="-qYKaQUmNgUT-kmqyWFm-2" value="" style="ellipse;whiteSpace=wrap;html=1;aspect=fixed;" parent="1" vertex="1">
          <mxGeometry x="150" y="460" width="100" height="100" as="geometry" />
        </mxCell>
        <mxCell id="-qYKaQUmNgUT-kmqyWFm-3" value="" style="endArrow=none;html=1;rounded=0;" parent="1" target="-qYKaQUmNgUT-kmqyWFm-2" edge="1">
          <mxGeometry width="50" height="50" relative="1" as="geometry">
            <mxPoint x="120" y="570" as="sourcePoint" />
            <mxPoint x="170" y="520" as="targetPoint" />
          </mxGeometry>
        </mxCell>
        <mxCell id="-qYKaQUmNgUT-kmqyWFm-4" value="" style="endArrow=none;html=1;rounded=0;entryX=0.918;entryY=0.211;entryDx=0;entryDy=0;entryPerimeter=0;" parent="1" target="-qYKaQUmNgUT-kmqyWFm-1" edge="1">
          <mxGeometry width="50" height="50" relative="1" as="geometry">
            <mxPoint x="240" y="480" as="sourcePoint" />
            <mxPoint x="300" y="430" as="targetPoint" />
          </mxGeometry>
        </mxCell>
        <mxCell id="-qYKaQUmNgUT-kmqyWFm-5" value="" style="endArrow=none;html=1;rounded=0;entryX=0.997;entryY=0.466;entryDx=0;entryDy=0;entryPerimeter=0;exitX=1;exitY=0.5;exitDx=0;exitDy=0;" parent="1" source="-qYKaQUmNgUT-kmqyWFm-2" target="-qYKaQUmNgUT-kmqyWFm-1" edge="1">
          <mxGeometry width="50" height="50" relative="1" as="geometry">
            <mxPoint x="253" y="495" as="sourcePoint" />
            <mxPoint x="294" y="462" as="targetPoint" />
          </mxGeometry>
        </mxCell>
        <mxCell id="-qYKaQUmNgUT-kmqyWFm-6" value="" style="endArrow=none;html=1;rounded=0;entryX=0.594;entryY=0.019;entryDx=0;entryDy=0;entryPerimeter=0;" parent="1" target="-qYKaQUmNgUT-kmqyWFm-1" edge="1">
          <mxGeometry width="50" height="50" relative="1" as="geometry">
            <mxPoint x="210" y="460" as="sourcePoint" />
            <mxPoint x="260" y="410" as="targetPoint" />
          </mxGeometry>
        </mxCell>
        <mxCell id="-qYKaQUmNgUT-kmqyWFm-7" value="" style="endArrow=none;html=1;rounded=0;entryX=0.951;entryY=0.756;entryDx=0;entryDy=0;entryPerimeter=0;" parent="1" source="-qYKaQUmNgUT-kmqyWFm-1" target="-qYKaQUmNgUT-kmqyWFm-2" edge="1">
          <mxGeometry width="50" height="50" relative="1" as="geometry">
            <mxPoint x="230" y="710" as="sourcePoint" />
            <mxPoint x="280" y="660" as="targetPoint" />
          </mxGeometry>
        </mxCell>
        <mxCell id="-qYKaQUmNgUT-kmqyWFm-10" value="" style="endArrow=none;dashed=1;html=1;dashPattern=1 3;strokeWidth=2;rounded=0;" parent="1" edge="1">
          <mxGeometry width="50" height="50" relative="1" as="geometry">
            <mxPoint x="170" y="580" as="sourcePoint" />
            <mxPoint x="240" y="580" as="targetPoint" />
          </mxGeometry>
        </mxCell>
        <mxCell id="-qYKaQUmNgUT-kmqyWFm-11" value="" style="endArrow=none;html=1;rounded=0;exitX=0.037;exitY=0.367;exitDx=0;exitDy=0;exitPerimeter=0;" parent="1" source="-qYKaQUmNgUT-kmqyWFm-2" target="-qYKaQUmNgUT-kmqyWFm-1" edge="1">
          <mxGeometry width="50" height="50" relative="1" as="geometry">
            <mxPoint x="130" y="490" as="sourcePoint" />
            <mxPoint x="180" y="440" as="targetPoint" />
          </mxGeometry>
        </mxCell>
        <mxCell id="-qYKaQUmNgUT-kmqyWFm-12" value="" style="endArrow=none;dashed=1;html=1;dashPattern=1 3;strokeWidth=2;rounded=0;" parent="1" edge="1">
          <mxGeometry width="50" height="50" relative="1" as="geometry">
            <mxPoint x="140" y="470" as="sourcePoint" />
            <mxPoint x="180" y="430" as="targetPoint" />
          </mxGeometry>
        </mxCell>
        <mxCell id="-qYKaQUmNgUT-kmqyWFm-13" value="匹配obj队列" style="text;html=1;strokeColor=none;fillColor=none;align=center;verticalAlign=middle;whiteSpace=wrap;rounded=0;fontSize=10;" parent="1" vertex="1">
          <mxGeometry x="220" y="440" width="60" height="30" as="geometry" />
        </mxCell>
        <mxCell id="-qYKaQUmNgUT-kmqyWFm-14" value="" style="endArrow=classic;html=1;rounded=0;" parent="1" edge="1">
          <mxGeometry width="50" height="50" relative="1" as="geometry">
            <mxPoint x="310" y="480" as="sourcePoint" />
            <mxPoint x="310" y="540" as="targetPoint" />
          </mxGeometry>
        </mxCell>
        <mxCell id="-qYKaQUmNgUT-kmqyWFm-15" value="" style="rounded=0;whiteSpace=wrap;html=1;" parent="1" vertex="1">
          <mxGeometry x="490" y="410" width="60" height="310" as="geometry" />
        </mxCell>
        <mxCell id="-qYKaQUmNgUT-kmqyWFm-24" value="" style="edgeStyle=orthogonalEdgeStyle;rounded=0;orthogonalLoop=1;jettySize=auto;html=1;" parent="1" source="-qYKaQUmNgUT-kmqyWFm-16" target="-qYKaQUmNgUT-kmqyWFm-23" edge="1">
          <mxGeometry relative="1" as="geometry" />
        </mxCell>
        <mxCell id="-qYKaQUmNgUT-kmqyWFm-16" value="key" style="rounded=0;whiteSpace=wrap;html=1;" parent="1" vertex="1">
          <mxGeometry x="490" y="410" width="60" height="30" as="geometry" />
        </mxCell>
        <mxCell id="-qYKaQUmNgUT-kmqyWFm-17" value="" style="rounded=0;whiteSpace=wrap;html=1;" parent="1" vertex="1">
          <mxGeometry x="490" y="440" width="60" height="30" as="geometry" />
        </mxCell>
        <mxCell id="-qYKaQUmNgUT-kmqyWFm-29" value="" style="edgeStyle=orthogonalEdgeStyle;rounded=0;orthogonalLoop=1;jettySize=auto;html=1;" parent="1" source="-qYKaQUmNgUT-kmqyWFm-18" target="-qYKaQUmNgUT-kmqyWFm-28" edge="1">
          <mxGeometry relative="1" as="geometry" />
        </mxCell>
        <mxCell id="-qYKaQUmNgUT-kmqyWFm-18" value="" style="rounded=0;whiteSpace=wrap;html=1;" parent="1" vertex="1">
          <mxGeometry x="490" y="470" width="60" height="30" as="geometry" />
        </mxCell>
        <mxCell id="-qYKaQUmNgUT-kmqyWFm-19" value="" style="rounded=0;whiteSpace=wrap;html=1;" parent="1" vertex="1">
          <mxGeometry x="490" y="495" width="60" height="30" as="geometry" />
        </mxCell>
        <mxCell id="-qYKaQUmNgUT-kmqyWFm-35" value="" style="edgeStyle=orthogonalEdgeStyle;rounded=0;orthogonalLoop=1;jettySize=auto;html=1;" parent="1" source="-qYKaQUmNgUT-kmqyWFm-20" target="-qYKaQUmNgUT-kmqyWFm-34" edge="1">
          <mxGeometry relative="1" as="geometry" />
        </mxCell>
        <mxCell id="-qYKaQUmNgUT-kmqyWFm-20" value="" style="rounded=0;whiteSpace=wrap;html=1;" parent="1" vertex="1">
          <mxGeometry x="490" y="525" width="60" height="30" as="geometry" />
        </mxCell>
        <mxCell id="-qYKaQUmNgUT-kmqyWFm-21" value="" style="rounded=0;whiteSpace=wrap;html=1;" parent="1" vertex="1">
          <mxGeometry x="490" y="555" width="60" height="30" as="geometry" />
        </mxCell>
        <mxCell id="-qYKaQUmNgUT-kmqyWFm-22" value="" style="endArrow=none;dashed=1;html=1;dashPattern=1 3;strokeWidth=2;rounded=0;" parent="1" edge="1">
          <mxGeometry width="50" height="50" relative="1" as="geometry">
            <mxPoint x="519.71" y="680" as="sourcePoint" />
            <mxPoint x="519.71" y="610" as="targetPoint" />
          </mxGeometry>
        </mxCell>
        <mxCell id="-qYKaQUmNgUT-kmqyWFm-26" value="" style="edgeStyle=orthogonalEdgeStyle;rounded=0;orthogonalLoop=1;jettySize=auto;html=1;" parent="1" source="-qYKaQUmNgUT-kmqyWFm-23" target="-qYKaQUmNgUT-kmqyWFm-25" edge="1">
          <mxGeometry relative="1" as="geometry" />
        </mxCell>
        <mxCell id="-qYKaQUmNgUT-kmqyWFm-23" value="val" style="whiteSpace=wrap;html=1;rounded=0;" parent="1" vertex="1">
          <mxGeometry x="585" y="410" width="70" height="30" as="geometry" />
        </mxCell>
        <mxCell id="-qYKaQUmNgUT-kmqyWFm-25" value="" style="whiteSpace=wrap;html=1;rounded=0;" parent="1" vertex="1">
          <mxGeometry x="685" y="410" width="70" height="30" as="geometry" />
        </mxCell>
        <mxCell id="-qYKaQUmNgUT-kmqyWFm-31" value="" style="edgeStyle=orthogonalEdgeStyle;rounded=0;orthogonalLoop=1;jettySize=auto;html=1;" parent="1" source="-qYKaQUmNgUT-kmqyWFm-28" target="-qYKaQUmNgUT-kmqyWFm-30" edge="1">
          <mxGeometry relative="1" as="geometry" />
        </mxCell>
        <mxCell id="-qYKaQUmNgUT-kmqyWFm-28" value="" style="rounded=0;whiteSpace=wrap;html=1;" parent="1" vertex="1">
          <mxGeometry x="590" y="470" width="60" height="30" as="geometry" />
        </mxCell>
        <mxCell id="-qYKaQUmNgUT-kmqyWFm-30" value="" style="rounded=0;whiteSpace=wrap;html=1;" parent="1" vertex="1">
          <mxGeometry x="695" y="470" width="60" height="30" as="geometry" />
        </mxCell>
        <mxCell id="-qYKaQUmNgUT-kmqyWFm-37" value="" style="edgeStyle=orthogonalEdgeStyle;rounded=0;orthogonalLoop=1;jettySize=auto;html=1;" parent="1" source="-qYKaQUmNgUT-kmqyWFm-34" target="-qYKaQUmNgUT-kmqyWFm-36" edge="1">
          <mxGeometry relative="1" as="geometry" />
        </mxCell>
        <mxCell id="-qYKaQUmNgUT-kmqyWFm-34" value="" style="rounded=0;whiteSpace=wrap;html=1;" parent="1" vertex="1">
          <mxGeometry x="590" y="525" width="60" height="30" as="geometry" />
        </mxCell>
        <mxCell id="-qYKaQUmNgUT-kmqyWFm-36" value="" style="rounded=0;whiteSpace=wrap;html=1;" parent="1" vertex="1">
          <mxGeometry x="695" y="525" width="60" height="30" as="geometry" />
        </mxCell>
        <mxCell id="-qYKaQUmNgUT-kmqyWFm-38" value="" style="endArrow=none;dashed=1;html=1;dashPattern=1 3;strokeWidth=2;rounded=0;" parent="1" edge="1">
          <mxGeometry width="50" height="50" relative="1" as="geometry">
            <mxPoint x="790" y="480" as="sourcePoint" />
            <mxPoint x="870" y="480" as="targetPoint" />
          </mxGeometry>
        </mxCell>
        <mxCell id="-qYKaQUmNgUT-kmqyWFm-39" value="匹配池" style="text;html=1;strokeColor=none;fillColor=none;align=center;verticalAlign=middle;whiteSpace=wrap;rounded=0;" parent="1" vertex="1">
          <mxGeometry x="550" y="360" width="60" height="30" as="geometry" />
        </mxCell>
        <mxCell id="-qYKaQUmNgUT-kmqyWFm-40" value="hash" style="text;html=1;strokeColor=none;fillColor=none;align=center;verticalAlign=middle;whiteSpace=wrap;rounded=0;" parent="1" vertex="1">
          <mxGeometry x="420" y="510" width="60" height="30" as="geometry" />
        </mxCell>
        <mxCell id="-qYKaQUmNgUT-kmqyWFm-41" value="" style="endArrow=classic;html=1;rounded=0;" parent="1" edge="1">
          <mxGeometry width="50" height="50" relative="1" as="geometry">
            <mxPoint x="470" y="475" as="sourcePoint" />
            <mxPoint x="470" y="585" as="targetPoint" />
          </mxGeometry>
        </mxCell>
        <mxCell id="-qYKaQUmNgUT-kmqyWFm-42" value="环形队列" style="text;html=1;strokeColor=none;fillColor=none;align=center;verticalAlign=middle;whiteSpace=wrap;rounded=0;" parent="1" vertex="1">
          <mxGeometry x="310" y="495" width="60" height="30" as="geometry" />
        </mxCell>
        <mxCell id="-qYKaQUmNgUT-kmqyWFm-45" value="" style="edgeStyle=orthogonalEdgeStyle;rounded=0;orthogonalLoop=1;jettySize=auto;html=1;" parent="1" source="-qYKaQUmNgUT-kmqyWFm-43" target="-qYKaQUmNgUT-kmqyWFm-44" edge="1">
          <mxGeometry relative="1" as="geometry" />
        </mxCell>
        <mxCell id="-qYKaQUmNgUT-kmqyWFm-43" value="" style="rounded=0;whiteSpace=wrap;html=1;" parent="1" vertex="1">
          <mxGeometry x="80" y="890" width="60" height="30" as="geometry" />
        </mxCell>
        <mxCell id="-qYKaQUmNgUT-kmqyWFm-47" value="" style="edgeStyle=orthogonalEdgeStyle;rounded=0;orthogonalLoop=1;jettySize=auto;html=1;" parent="1" source="-qYKaQUmNgUT-kmqyWFm-44" target="-qYKaQUmNgUT-kmqyWFm-46" edge="1">
          <mxGeometry relative="1" as="geometry" />
        </mxCell>
        <mxCell id="-qYKaQUmNgUT-kmqyWFm-44" value="" style="rounded=0;whiteSpace=wrap;html=1;" parent="1" vertex="1">
          <mxGeometry x="220" y="890" width="60" height="30" as="geometry" />
        </mxCell>
        <mxCell id="-qYKaQUmNgUT-kmqyWFm-49" value="" style="edgeStyle=orthogonalEdgeStyle;rounded=0;orthogonalLoop=1;jettySize=auto;html=1;" parent="1" source="-qYKaQUmNgUT-kmqyWFm-46" target="-qYKaQUmNgUT-kmqyWFm-48" edge="1">
          <mxGeometry relative="1" as="geometry" />
        </mxCell>
        <mxCell id="-qYKaQUmNgUT-kmqyWFm-46" value="" style="rounded=0;whiteSpace=wrap;html=1;" parent="1" vertex="1">
          <mxGeometry x="360" y="890" width="60" height="30" as="geometry" />
        </mxCell>
        <mxCell id="-qYKaQUmNgUT-kmqyWFm-48" value="" style="rounded=0;whiteSpace=wrap;html=1;" parent="1" vertex="1">
          <mxGeometry x="500" y="890" width="60" height="30" as="geometry" />
        </mxCell>
        <mxCell id="-qYKaQUmNgUT-kmqyWFm-51" value="" style="endArrow=none;dashed=1;html=1;dashPattern=1 3;strokeWidth=2;rounded=0;" parent="1" edge="1">
          <mxGeometry width="50" height="50" relative="1" as="geometry">
            <mxPoint x="580" y="900" as="sourcePoint" />
            <mxPoint x="680" y="900" as="targetPoint" />
          </mxGeometry>
        </mxCell>
        <mxCell id="-qYKaQUmNgUT-kmqyWFm-52" value="" style="rounded=0;whiteSpace=wrap;html=1;" parent="1" vertex="1">
          <mxGeometry x="80" y="1020" width="60" height="30" as="geometry" />
        </mxCell>
        <mxCell id="-qYKaQUmNgUT-kmqyWFm-53" value="" style="endArrow=classic;html=1;rounded=0;" parent="1" edge="1">
          <mxGeometry width="50" height="50" relative="1" as="geometry">
            <mxPoint x="150" y="1020" as="sourcePoint" />
            <mxPoint x="240" y="930" as="targetPoint" />
          </mxGeometry>
        </mxCell>
        <mxCell id="-qYKaQUmNgUT-kmqyWFm-54" value="" style="endArrow=classic;html=1;rounded=0;" parent="1" edge="1">
          <mxGeometry width="50" height="50" relative="1" as="geometry">
            <mxPoint x="150" y="1030" as="sourcePoint" />
            <mxPoint x="380" y="930" as="targetPoint" />
          </mxGeometry>
        </mxCell>
        <mxCell id="-qYKaQUmNgUT-kmqyWFm-55" value="" style="endArrow=none;dashed=1;html=1;dashPattern=1 3;strokeWidth=2;rounded=0;" parent="1" edge="1">
          <mxGeometry width="50" height="50" relative="1" as="geometry">
            <mxPoint x="110" y="1010" as="sourcePoint" />
            <mxPoint x="110" y="930" as="targetPoint" />
          </mxGeometry>
        </mxCell>
        <mxCell id="-qYKaQUmNgUT-kmqyWFm-56" value="一个链表，循环匹配" style="text;html=1;strokeColor=none;fillColor=none;align=center;verticalAlign=middle;whiteSpace=wrap;rounded=0;" parent="1" vertex="1">
          <mxGeometry x="70" y="850" width="140" height="30" as="geometry" />
        </mxCell>
        <mxCell id="-qYKaQUmNgUT-kmqyWFm-60" value="" style="rounded=0;whiteSpace=wrap;html=1;" parent="1" vertex="1">
          <mxGeometry x="1320" y="830" width="100" height="370" as="geometry" />
        </mxCell>
        <mxCell id="-qYKaQUmNgUT-kmqyWFm-61" value="" style="rounded=0;whiteSpace=wrap;html=1;" parent="1" vertex="1">
          <mxGeometry x="1320" y="840" width="100" height="20" as="geometry" />
        </mxCell>
        <mxCell id="-qYKaQUmNgUT-kmqyWFm-62" value="" style="rounded=0;whiteSpace=wrap;html=1;" parent="1" vertex="1">
          <mxGeometry x="1320" y="860" width="100" height="20" as="geometry" />
        </mxCell>
        <mxCell id="-qYKaQUmNgUT-kmqyWFm-63" value="" style="rounded=0;whiteSpace=wrap;html=1;" parent="1" vertex="1">
          <mxGeometry x="1320" y="880" width="100" height="20" as="geometry" />
        </mxCell>
        <mxCell id="-qYKaQUmNgUT-kmqyWFm-64" value="" style="rounded=0;whiteSpace=wrap;html=1;" parent="1" vertex="1">
          <mxGeometry x="1320" y="900" width="100" height="20" as="geometry" />
        </mxCell>
        <mxCell id="E36rqTPJH54_jt4325YZ-4" value="" style="edgeStyle=orthogonalEdgeStyle;rounded=0;orthogonalLoop=1;jettySize=auto;html=1;" edge="1" parent="1" source="E36rqTPJH54_jt4325YZ-1" target="E36rqTPJH54_jt4325YZ-3">
          <mxGeometry relative="1" as="geometry" />
        </mxCell>
        <mxCell id="E36rqTPJH54_jt4325YZ-1" value="match_pool_module:注册匹配定时器TIMEOUT_MATCH_OBJ_TIMING_MATCH" style="rounded=0;whiteSpace=wrap;html=1;" vertex="1" parent="1">
          <mxGeometry x="230" y="1410" width="250" height="60" as="geometry" />
        </mxCell>
        <mxCell id="E36rqTPJH54_jt4325YZ-13" style="edgeStyle=orthogonalEdgeStyle;rounded=0;orthogonalLoop=1;jettySize=auto;html=1;exitX=0.5;exitY=1;exitDx=0;exitDy=0;" edge="1" parent="1" source="E36rqTPJH54_jt4325YZ-2" target="E36rqTPJH54_jt4325YZ-7">
          <mxGeometry relative="1" as="geometry" />
        </mxCell>
        <mxCell id="E36rqTPJH54_jt4325YZ-2" value="" style="rounded=0;whiteSpace=wrap;html=1;fillColor=none;" vertex="1" parent="1">
          <mxGeometry x="195" y="1380" width="490" height="210" as="geometry" />
        </mxCell>
        <mxCell id="E36rqTPJH54_jt4325YZ-3" value="match_pool:init 中触发定时器 ：TIMEOUT_MATCH_OBJ_TIMING_MATCH" style="rounded=0;whiteSpace=wrap;html=1;" vertex="1" parent="1">
          <mxGeometry x="230" y="1510" width="250" height="60" as="geometry" />
        </mxCell>
        <mxCell id="E36rqTPJH54_jt4325YZ-5" value="基类：match_pool" style="rounded=0;whiteSpace=wrap;html=1;" vertex="1" parent="1">
          <mxGeometry x="520" y="1450" width="120" height="60" as="geometry" />
        </mxCell>
        <mxCell id="E36rqTPJH54_jt4325YZ-16" style="edgeStyle=orthogonalEdgeStyle;rounded=0;orthogonalLoop=1;jettySize=auto;html=1;" edge="1" parent="1" source="E36rqTPJH54_jt4325YZ-7" target="E36rqTPJH54_jt4325YZ-15">
          <mxGeometry relative="1" as="geometry" />
        </mxCell>
        <mxCell id="E36rqTPJH54_jt4325YZ-7" value="" style="rounded=0;whiteSpace=wrap;html=1;" vertex="1" parent="1">
          <mxGeometry x="50" y="1645" width="460" height="175" as="geometry" />
        </mxCell>
        <mxCell id="E36rqTPJH54_jt4325YZ-8" value="子类：explore_match_pool" style="rounded=0;whiteSpace=wrap;html=1;" vertex="1" parent="1">
          <mxGeometry x="360" y="1710" width="120" height="60" as="geometry" />
        </mxCell>
        <mxCell id="E36rqTPJH54_jt4325YZ-12" value="子类只需要负责调用init函数，然后就会得到一个循环匹配的定时器。整个匹配流程已经已经在基类中写清楚了，只需要子类重写相应的虚函数即可" style="rounded=0;whiteSpace=wrap;html=1;" vertex="1" parent="1">
          <mxGeometry x="70" y="1687.5" width="250" height="90" as="geometry" />
        </mxCell>
        <mxCell id="E36rqTPJH54_jt4325YZ-15" value="init何时被调用？&lt;br&gt;大概在 module 中的某个初始化阶段中&lt;br&gt;例如：huaben_match_module.c 中在 enter_intervice 中初始化&lt;br&gt;例如：lj_1v1_match_module.c 中在 data_build 中初始化" style="rounded=0;whiteSpace=wrap;html=1;" vertex="1" parent="1">
          <mxGeometry x="90" y="1880" width="380" height="110" as="geometry" />
        </mxCell>
      </root>
    </mxGraphModel>
  </diagram>
</mxfile>
